<svg width="20" height="12" viewBox="0 0 20 12" fill="none" xmlns="http://www.w3.org/2000/svg">
<path d="M19.1 2.375L10.7 10.8C10.6 10.9 10.4917 10.9707 10.375 11.012C10.2583 11.054 10.1333 11.075 9.99999 11.075C9.86666 11.075 9.74166 11.054 9.62499 11.012C9.50833 10.9707 9.39999 10.9 9.29999 10.8L0.874994 2.375C0.64166 2.14167 0.524994 1.85 0.524994 1.5C0.524994 1.15 0.649994 0.85 0.899994 0.6C1.14999 0.35 1.44166 0.225 1.77499 0.225C2.10833 0.225 2.39999 0.35 2.64999 0.6L9.99999 7.95L17.35 0.6C17.5833 0.366667 17.8707 0.25 18.212 0.25C18.554 0.25 18.85 0.375 19.1 0.625C19.35 0.875 19.475 1.16667 19.475 1.5C19.475 1.83333 19.35 2.125 19.1 2.375Z" fill="#D0D4DE"/>
</svg>
