<svg width="13" height="13" viewBox="0 0 13 13" fill="none" xmlns="http://www.w3.org/2000/svg">
<path fill-rule="evenodd" clip-rule="evenodd" d="M11.0357 3.67857H11.9554C12.1992 3.67881 12.433 3.77578 12.6054 3.9482C12.7778 4.12061 12.8748 4.35438 12.875 4.59821V12.875H0V4.59821C0.000243465 4.35438 0.0972123 4.12061 0.269626 3.9482C0.44204 3.77578 0.675813 3.67881 0.919643 3.67857H1.83929V0.919643C1.83953 0.675813 1.9365 0.44204 2.10891 0.269626C2.28133 0.0972123 2.5151 0.000243465 2.75893 0H10.1161C10.3599 0.000243465 10.5937 0.0972123 10.7661 0.269626C10.9385 0.44204 11.0355 0.675813 11.0357 0.919643V3.67857ZM5.51786 9.19643V11.9554H7.35714V9.19643H5.51786ZM8.27679 8.73661V11.9554H11.9554V4.59821H10.1161V0.919643H2.75893V4.59821H0.919643V11.9554H4.59821V8.73661C4.59821 8.61465 4.64666 8.4977 4.73289 8.41146C4.81913 8.32523 4.93608 8.27679 5.05804 8.27679H7.81696C7.93892 8.27679 8.05587 8.32523 8.14211 8.41146C8.22834 8.4977 8.27679 8.61465 8.27679 8.73661ZM6.89732 3.67857H8.73661V4.59821H6.89732V6.4375H5.97768V4.59821H4.13839V3.67857H5.97768V1.83929H6.89732V3.67857Z" fill="#7C838F"/>
</svg>
