<svg width="12" height="12" viewBox="0 0 12 12" fill="none" xmlns="http://www.w3.org/2000/svg">
<path d="M5.74352 7.58275L1.61019 11.6297C1.45554 11.7812 1.25872 11.8569 1.01971 11.8569C0.780712 11.8569 0.583887 11.7812 0.429238 11.6297C0.27459 11.4783 0.197266 11.2856 0.197266 11.0516C0.197266 10.8176 0.27459 10.6249 0.429238 10.4735L4.56257 6.42646L0.429238 2.37946C0.27459 2.22804 0.197266 2.03533 0.197266 1.80132C0.197266 1.56731 0.27459 1.37459 0.429238 1.22318C0.583887 1.07176 0.780712 0.996048 1.01971 0.996048C1.25872 0.996048 1.45554 1.07176 1.61019 1.22318L5.74352 5.27018L9.87686 1.22318C10.0315 1.07176 10.2283 0.996048 10.4673 0.996048C10.7063 0.996048 10.9032 1.07176 11.0578 1.22318C11.2125 1.37459 11.2898 1.56731 11.2898 1.80132C11.2898 2.03533 11.2125 2.22804 11.0578 2.37946L6.92448 6.42646L11.0578 10.4735C11.2125 10.6249 11.2898 10.8176 11.2898 11.0516C11.2898 11.2856 11.2125 11.4783 11.0578 11.6297C10.9032 11.7812 10.7063 11.8569 10.4673 11.8569C10.2283 11.8569 10.0315 11.7812 9.87686 11.6297L5.74352 7.58275Z" fill="#343843"/>
</svg>
