<svg width="12" height="16" viewBox="0 0 12 16" fill="none" xmlns="http://www.w3.org/2000/svg">
<path d="M5.71154 3.77778C5.19807 3.77778 4.69613 3.93357 4.26919 4.22544C3.84226 4.51731 3.5095 4.93216 3.31301 5.41753C3.11651 5.90289 3.0651 6.43698 3.16527 6.95224C3.26544 7.4675 3.5127 7.9408 3.87578 8.31228C4.23886 8.68376 4.70145 8.93675 5.20505 9.03924C5.70866 9.14173 6.23066 9.08913 6.70504 8.88808C7.17943 8.68704 7.58489 8.34658 7.87016 7.90976C8.15543 7.47294 8.30769 6.95939 8.30769 6.43403C8.30598 5.73009 8.03191 5.05548 7.5454 4.55771C7.0589 4.05995 6.39956 3.77953 5.71154 3.77778ZM5.71154 8.02778C5.40346 8.02778 5.10229 7.93431 4.84613 7.75918C4.58997 7.58406 4.39032 7.33515 4.27242 7.04393C4.15452 6.75271 4.12367 6.43226 4.18378 6.1231C4.24388 5.81395 4.39224 5.52997 4.61008 5.30708C4.82793 5.08419 5.10549 4.9324 5.40765 4.8709C5.70981 4.80941 6.02301 4.84097 6.30764 4.9616C6.59227 5.08222 6.83555 5.2865 7.00671 5.54859C7.17787 5.81068 7.26923 6.11881 7.26923 6.43403C7.26752 6.85618 7.10286 7.26054 6.81111 7.55905C6.51935 7.85756 6.12414 8.02603 5.71154 8.02778ZM5.71154 0.590279C4.19727 0.592036 2.74552 1.20828 1.67477 2.30381C0.604019 3.39935 0.00171783 4.88471 0 6.43403C0 8.51919 0.941106 10.7305 2.72596 12.8223C3.52827 13.7698 4.42928 14.6249 5.41298 15.3723C5.50142 15.4326 5.60529 15.4647 5.71154 15.4647C5.81779 15.4647 5.92166 15.4326 6.0101 15.3723C6.99666 14.626 7.89994 13.7709 8.70361 12.8223C10.482 10.7305 11.4231 8.51919 11.4231 6.43403C11.4214 4.88471 10.8191 3.39935 9.74831 2.30381C8.67756 1.20828 7.22581 0.592036 5.71154 0.590279ZM5.71154 14.27C4.64063 13.4067 1.03846 10.2325 1.03846 6.43403C1.03846 5.16596 1.5308 3.94983 2.40717 3.05317C3.28355 2.15652 4.47216 1.65278 5.71154 1.65278C6.95092 1.65278 8.13953 2.15652 9.0159 3.05317C9.89227 3.94983 10.3846 5.16596 10.3846 6.43403C10.3846 10.2325 6.78245 13.4067 5.71154 14.27Z" fill="#00BC5F"/>
</svg>
