<svg width="36" height="36" viewBox="0 0 36 36" fill="none" xmlns="http://www.w3.org/2000/svg">
<path fill-rule="evenodd" clip-rule="evenodd" d="M17.568 31.3628L18 30.75L17.568 31.3628ZM18.432 31.3628L18.435 31.3612L18.4425 31.356L18.465 31.3387L18.5535 31.275C18.6285 31.2195 18.738 31.1385 18.876 31.032C19.152 30.8205 19.5435 30.5092 20.0108 30.1095C21.2373 29.0611 22.3842 27.923 23.442 26.7045C25.923 23.835 28.5 19.7393 28.5 15.057C28.5 12.2595 27.3945 9.5745 25.4265 7.5945C24.4538 6.61454 23.2968 5.83664 22.0223 5.30556C20.7478 4.77447 19.3808 4.5007 18 4.5C16.6193 4.50061 15.2523 4.77426 13.9778 5.30521C12.7032 5.83616 11.5463 6.61393 10.5735 7.59375C8.60357 9.57828 7.49868 12.2615 7.5 15.0577C7.5 19.7392 10.077 23.835 12.558 26.7045C13.6158 27.923 14.7627 29.0611 15.9893 30.1095C16.4573 30.5092 16.848 30.8205 17.124 31.032C17.2594 31.1363 17.3961 31.2388 17.5343 31.3395L17.5583 31.356L17.565 31.3612L17.568 31.3628C17.8268 31.545 18.1733 31.545 18.432 31.3628V31.3628ZM18 30.75L18.432 31.3628L18 30.75ZM21.75 15C21.75 15.9946 21.3549 16.9484 20.6517 17.6517C19.9484 18.3549 18.9946 18.75 18 18.75C17.0054 18.75 16.0516 18.3549 15.3484 17.6517C14.6451 16.9484 14.25 15.9946 14.25 15C14.25 14.0054 14.6451 13.0516 15.3484 12.3483C16.0516 11.6451 17.0054 11.25 18 11.25C18.9946 11.25 19.9484 11.6451 20.6517 12.3483C21.3549 13.0516 21.75 14.0054 21.75 15V15Z" fill="#343843"/>
</svg>
