<svg width="37" height="36" viewBox="0 0 37 36" fill="none" xmlns="http://www.w3.org/2000/svg">
<g clip-path="url(#clip0_796_8299)">
<path d="M18.3418 13C17.7855 13 17.2418 13.165 16.7793 13.474C16.3167 13.783 15.9563 14.2223 15.7434 14.7362C15.5305 15.2501 15.4748 15.8156 15.5833 16.3612C15.6919 16.9068 15.9597 17.4079 16.3531 17.8012C16.7464 18.1946 17.2475 18.4624 17.7931 18.571C18.3387 18.6795 18.9042 18.6238 19.4181 18.4109C19.932 18.198 20.3713 17.8376 20.6803 17.375C20.9893 16.9125 21.1543 16.3688 21.1543 15.8125C21.1524 15.0671 20.8555 14.3529 20.3285 13.8258C19.8014 13.2988 19.0871 13.0019 18.3418 13ZM18.3418 17.5C18.008 17.5 17.6818 17.401 17.4043 17.2156C17.1268 17.0302 16.9105 16.7666 16.7828 16.4583C16.655 16.1499 16.6216 15.8106 16.6867 15.4833C16.7518 15.1559 16.9126 14.8553 17.1486 14.6193C17.3846 14.3833 17.6852 14.2225 18.0126 14.1574C18.3399 14.0923 18.6792 14.1257 18.9876 14.2535C19.2959 14.3812 19.5595 14.5975 19.7449 14.875C19.9303 15.1525 20.0293 15.4787 20.0293 15.8125C20.0274 16.2595 19.8491 16.6876 19.533 17.0037C19.2169 17.3198 18.7888 17.4981 18.3418 17.5ZM18.3418 9.625C16.7013 9.62686 15.1286 10.2794 13.9686 11.4393C12.8087 12.5993 12.1562 14.172 12.1543 15.8125C12.1543 18.0203 13.1738 20.3617 15.1074 22.5766C15.9766 23.5798 16.9527 24.4852 18.0184 25.2766C18.1142 25.3404 18.2267 25.3744 18.3418 25.3744C18.4569 25.3744 18.5694 25.3404 18.6652 25.2766C19.734 24.4864 20.7126 23.5809 21.5832 22.5766C23.5098 20.3617 24.5293 18.0203 24.5293 15.8125C24.5274 14.172 23.8749 12.5993 22.715 11.4393C21.555 10.2794 19.9823 9.62686 18.3418 9.625ZM18.3418 24.1094C17.1816 23.1953 13.2793 19.8344 13.2793 15.8125C13.2793 14.4698 13.8127 13.1822 14.7621 12.2328C15.7115 11.2834 16.9991 10.75 18.3418 10.75C19.6845 10.75 20.9721 11.2834 21.9215 12.2328C22.8709 13.1822 23.4043 14.4698 23.4043 15.8125C23.4043 19.8344 19.502 23.1953 18.3418 24.1094Z" fill="#7C838F"/>
</g>
<defs>
<clipPath id="clip0_796_8299">
<rect width="13" height="18" fill="white" transform="translate(12.1543 9)"/>
</clipPath>
</defs>
</svg>
