<svg fill="none" xmlns="http://www.w3.org/2000/svg" viewBox="0 0 30 18">
  <path fill-rule="evenodd" clip-rule="evenodd" d="M29.294 1.25c.222-.705 0-1.218-.985-1.218h-3.273c-.825 0-1.207.45-1.43.93 0 0-1.683 4.1-4.034 6.757-.763.77-1.112 1.025-1.525 1.025-.223 0-.509-.256-.509-.96V1.217c0-.833-.254-1.217-.953-1.217h-5.148c-.508 0-.826.384-.826.769 0 .8 1.176.993 1.303 3.235v4.871c0 1.057-.188 1.25-.604 1.25-1.112 0-3.813-4.132-5.433-8.84C5.564.353 5.243 0 4.418 0H1.111C.159 0 0 .448 0 .929c0 .865 1.112 5.22 5.179 10.985 2.7 3.938 6.545 6.054 10.008 6.054 2.097 0 2.351-.48 2.351-1.281v-2.979c0-.96.19-1.12.858-1.12.476 0 1.335.255 3.273 2.145C23.892 16.975 24.274 18 25.513 18h3.273c.953 0 1.398-.48 1.143-1.41-.285-.928-1.366-2.273-2.764-3.874-.762-.897-1.906-1.89-2.256-2.37-.476-.641-.349-.897 0-1.473-.031 0 3.972-5.702 4.385-7.625" fill="#2FAFFF"/>
</svg>